<svg width="100" height="100" viewBox="0 0 100 100" fill="none" xmlns="http://www.w3.org/2000/svg">
  <rect width="100" height="100" rx="20" fill="#3B82F6"/>
  <path d="M50 20C33.4315 20 20 33.4315 20 50C20 66.5685 33.4315 80 50 80C66.5685 80 80 66.5685 80 50C80 33.4315 66.5685 20 50 20ZM60 55C60 55.5523 59.5523 56 59 56H41C40.4477 56 40 55.5523 40 55V45C40 44.4477 40.4477 44 41 44H59C59.5523 44 60 44.4477 60 45V55ZM62 40C62 40.5523 61.5523 41 61 41H39C38.4477 41 38 40.5523 38 40V37C38 36.4477 38.4477 36 39 36H61C61.5523 36 62 36.4477 62 37V40Z" fill="white"/>
  <circle cx="75" cy="25" r="10" fill="#F97316"/>
</svg>